<?xml version="1.0" encoding="UTF-8"?>
<svg width="100" height="100" viewBox="0 0 100 100" xmlns="http://www.w3.org/2000/svg">
    <defs>
        <pattern id="topo-pattern" x="0" y="0" width="100" height="100" patternUnits="userSpaceOnUse">
            <!-- Contour lines -->
            <path d="M0,20 Q25,10 50,20 T100,20" fill="none" stroke="currentColor" stroke-width="0.5" opacity="0.3"/>
            <path d="M0,40 Q25,30 50,40 T100,40" fill="none" stroke="currentColor" stroke-width="0.5" opacity="0.3"/>
            <path d="M0,60 Q25,50 50,60 T100,60" fill="none" stroke="currentColor" stroke-width="0.5" opacity="0.3"/>
            <path d="M0,80 Q25,70 50,80 T100,80" fill="none" stroke="currentColor" stroke-width="0.5" opacity="0.3"/>
            
            <!-- Vertical contour lines -->
            <path d="M20,0 Q10,25 20,50 T20,100" fill="none" stroke="currentColor" stroke-width="0.5" opacity="0.3"/>
            <path d="M40,0 Q30,25 40,50 T40,100" fill="none" stroke="currentColor" stroke-width="0.5" opacity="0.3"/>
            <path d="M60,0 Q50,25 60,50 T60,100" fill="none" stroke="currentColor" stroke-width="0.5" opacity="0.3"/>
            <path d="M80,0 Q70,25 80,50 T80,100" fill="none" stroke="currentColor" stroke-width="0.5" opacity="0.3"/>
            
            <!-- Additional detail lines -->
            <path d="M0,30 Q25,25 50,30 T100,30" fill="none" stroke="currentColor" stroke-width="0.3" opacity="0.2"/>
            <path d="M0,50 Q25,45 50,50 T100,50" fill="none" stroke="currentColor" stroke-width="0.3" opacity="0.2"/>
            <path d="M0,70 Q25,65 50,70 T100,70" fill="none" stroke="currentColor" stroke-width="0.3" opacity="0.2"/>
            <path d="M0,90 Q25,85 50,90 T100,90" fill="none" stroke="currentColor" stroke-width="0.3" opacity="0.2"/>
        </pattern>
    </defs>
    <rect width="100" height="100" fill="url(#topo-pattern)"/>
</svg> 